<mxfile host="65bd71144e">
    <diagram id="xxju4rxON5brTqNqP8_f" name="1-HomeScreen">
        <mxGraphModel dx="2404" dy="1983" grid="1" gridSize="10" guides="1" tooltips="1" connect="1" arrows="1" fold="1" page="1" pageScale="1" pageWidth="827" pageHeight="1169" math="0" shadow="0">
            <root>
                <mxCell id="0"/>
                <mxCell id="1" parent="0"/>
                <mxCell id="2" value="" style="rounded=0;whiteSpace=wrap;html=1;fillColor=#464547;strokeWidth=2;strokeColor=none;" parent="1" vertex="1">
                    <mxGeometry width="1280" height="800" as="geometry"/>
                </mxCell>
                <mxCell id="TP8MnhBlpO24nAZ6K26b-36" value="" style="text;html=1;strokeColor=none;fillColor=#282C34;align=center;verticalAlign=middle;whiteSpace=wrap;rounded=0;fontColor=#39C2D7;strokeWidth=2;gradientColor=none;" parent="1" vertex="1">
                    <mxGeometry width="1280" height="80" as="geometry"/>
                </mxCell>
                <mxCell id="TP8MnhBlpO24nAZ6K26b-59" value="&lt;font style=&quot;font-size: 25px&quot;&gt;Actions&lt;/font&gt;" style="text;html=1;strokeColor=none;fillColor=none;align=center;verticalAlign=middle;whiteSpace=wrap;rounded=0;fontColor=#39C2D7;strokeWidth=2;" parent="1" vertex="1">
                    <mxGeometry x="20" y="15" width="130" height="50" as="geometry"/>
                </mxCell>
                <mxCell id="TP8MnhBlpO24nAZ6K26b-69" value="" style="edgeStyle=none;html=1;fontFamily=Courier New;fontSize=24;fontColor=#CCCCCC;" parent="1" edge="1">
                    <mxGeometry relative="1" as="geometry">
                        <mxPoint x="95" y="115" as="sourcePoint"/>
                        <mxPoint x="95" y="115" as="targetPoint"/>
                    </mxGeometry>
                </mxCell>
                <mxCell id="TP8MnhBlpO24nAZ6K26b-70" value="&lt;font style=&quot;font-size: 25px&quot;&gt;Dashboards&lt;/font&gt;" style="text;html=1;strokeColor=none;fillColor=none;align=center;verticalAlign=middle;whiteSpace=wrap;rounded=0;fontColor=#39C2D7;strokeWidth=2;" parent="1" vertex="1">
                    <mxGeometry x="190" y="15" width="130" height="50" as="geometry"/>
                </mxCell>
                <mxCell id="TP8MnhBlpO24nAZ6K26b-71" value="&lt;font style=&quot;font-size: 25px&quot;&gt;Settings&lt;/font&gt;" style="text;html=1;strokeColor=none;fillColor=none;align=center;verticalAlign=middle;whiteSpace=wrap;rounded=0;fontColor=#39C2D7;strokeWidth=2;" parent="1" vertex="1">
                    <mxGeometry x="1120" y="15" width="130" height="50" as="geometry"/>
                </mxCell>
                <mxCell id="TP8MnhBlpO24nAZ6K26b-78" value="&lt;font color=&quot;#e6e6e6&quot;&gt;Image&lt;/font&gt;" style="text;html=1;strokeColor=none;fillColor=none;align=center;verticalAlign=middle;whiteSpace=wrap;rounded=0;shadow=0;glass=0;sketch=0;fontFamily=Courier New;fontSize=25;fontColor=#CCCCCC;" parent="1" vertex="1">
                    <mxGeometry x="40" y="310" width="60" height="45" as="geometry"/>
                </mxCell>
                <mxCell id="TP8MnhBlpO24nAZ6K26b-79" value="&lt;font color=&quot;#e6e6e6&quot;&gt;Browser&lt;/font&gt;" style="text;html=1;strokeColor=none;fillColor=none;align=center;verticalAlign=middle;whiteSpace=wrap;rounded=0;shadow=0;glass=0;sketch=0;fontFamily=Courier New;fontSize=25;fontColor=#CCCCCC;" parent="1" vertex="1">
                    <mxGeometry x="360" y="295" width="120" height="60" as="geometry"/>
                </mxCell>
                <mxCell id="TP8MnhBlpO24nAZ6K26b-80" value="&lt;font color=&quot;#e6e6e6&quot;&gt;Type&lt;/font&gt;" style="text;html=1;strokeColor=none;fillColor=none;align=center;verticalAlign=middle;whiteSpace=wrap;rounded=0;shadow=0;glass=0;sketch=0;fontFamily=Courier New;fontSize=25;fontColor=#CCCCCC;" parent="1" vertex="1">
                    <mxGeometry x="762.5" y="300" width="90" height="50" as="geometry"/>
                </mxCell>
                <mxCell id="TP8MnhBlpO24nAZ6K26b-81" value="&lt;font color=&quot;#e6e6e6&quot;&gt;State&lt;/font&gt;" style="text;html=1;strokeColor=none;fillColor=none;align=center;verticalAlign=middle;whiteSpace=wrap;rounded=0;shadow=0;glass=0;sketch=0;fontFamily=Courier New;fontSize=25;fontColor=#CCCCCC;" parent="1" vertex="1">
                    <mxGeometry x="1140" y="320" width="60" height="45" as="geometry"/>
                </mxCell>
                <mxCell id="TP8MnhBlpO24nAZ6K26b-86" value="" style="endArrow=none;html=1;fontFamily=Courier New;fontSize=25;fontColor=#CCCCCC;entryX=0;entryY=1;entryDx=0;entryDy=0;exitX=1;exitY=1;exitDx=0;exitDy=0;strokeColor=#E6E6E6;" parent="1" source="TP8MnhBlpO24nAZ6K26b-81" target="TP8MnhBlpO24nAZ6K26b-78" edge="1">
                    <mxGeometry width="50" height="50" relative="1" as="geometry">
                        <mxPoint x="740" y="425" as="sourcePoint"/>
                        <mxPoint x="620" y="440" as="targetPoint"/>
                    </mxGeometry>
                </mxCell>
                <mxCell id="TP8MnhBlpO24nAZ6K26b-87" value="&lt;font color=&quot;#39c2d7&quot;&gt;cypress/chromium&lt;/font&gt;" style="text;html=1;strokeColor=none;fillColor=none;align=center;verticalAlign=middle;whiteSpace=wrap;rounded=0;shadow=0;glass=0;sketch=0;fontFamily=Courier New;fontSize=25;fontColor=#3399FF;" parent="1" vertex="1">
                    <mxGeometry x="30" y="385" width="255" height="30" as="geometry"/>
                </mxCell>
                <mxCell id="TP8MnhBlpO24nAZ6K26b-88" value="&lt;font color=&quot;#39c2d7&quot;&gt;chromium&lt;/font&gt;" style="text;html=1;strokeColor=none;fillColor=none;align=center;verticalAlign=middle;whiteSpace=wrap;rounded=0;shadow=0;glass=0;sketch=0;fontFamily=Courier New;fontSize=25;fontColor=#3399FF;" parent="1" vertex="1">
                    <mxGeometry x="295" y="385" width="255" height="30" as="geometry"/>
                </mxCell>
                <mxCell id="TP8MnhBlpO24nAZ6K26b-89" value="&lt;font color=&quot;#39c2d7&quot;&gt;automation&lt;/font&gt;" style="text;html=1;strokeColor=none;fillColor=none;align=center;verticalAlign=middle;whiteSpace=wrap;rounded=0;shadow=0;glass=0;sketch=0;fontFamily=Courier New;fontSize=25;fontColor=#3399FF;" parent="1" vertex="1">
                    <mxGeometry x="710" y="390" width="255" height="30" as="geometry"/>
                </mxCell>
                <mxCell id="TP8MnhBlpO24nAZ6K26b-90" value="&lt;font color=&quot;#ffffff&quot;&gt;running&lt;/font&gt;" style="text;html=1;strokeColor=none;fillColor=#3399FF;align=center;verticalAlign=middle;whiteSpace=wrap;rounded=0;shadow=0;glass=0;sketch=0;fontFamily=Courier New;fontSize=25;fontColor=#3399FF;" parent="1" vertex="1">
                    <mxGeometry x="1039" y="390" width="161" height="30" as="geometry"/>
                </mxCell>
                <mxCell id="TP8MnhBlpO24nAZ6K26b-92" value="&lt;font color=&quot;#39c2d7&quot;&gt;chrome/80&lt;/font&gt;" style="text;html=1;strokeColor=none;fillColor=none;align=center;verticalAlign=middle;whiteSpace=wrap;rounded=0;shadow=0;glass=0;sketch=0;fontFamily=Courier New;fontSize=25;fontColor=#3399FF;" parent="1" vertex="1">
                    <mxGeometry x="-20" y="450" width="255" height="30" as="geometry"/>
                </mxCell>
                <mxCell id="TP8MnhBlpO24nAZ6K26b-93" value="&lt;font color=&quot;#39c2d7&quot;&gt;chrome&lt;/font&gt;" style="text;html=1;strokeColor=none;fillColor=none;align=center;verticalAlign=middle;whiteSpace=wrap;rounded=0;shadow=0;glass=0;sketch=0;fontFamily=Courier New;fontSize=25;fontColor=#3399FF;" parent="1" vertex="1">
                    <mxGeometry x="280" y="450" width="255" height="30" as="geometry"/>
                </mxCell>
                <mxCell id="TP8MnhBlpO24nAZ6K26b-94" value="&lt;font color=&quot;#39c2d7&quot;&gt;manual&lt;/font&gt;" style="text;html=1;strokeColor=none;fillColor=none;align=center;verticalAlign=middle;whiteSpace=wrap;rounded=0;shadow=0;glass=0;sketch=0;fontFamily=Courier New;fontSize=25;fontColor=#3399FF;" parent="1" vertex="1">
                    <mxGeometry x="700" y="460" width="255" height="30" as="geometry"/>
                </mxCell>
                <mxCell id="TP8MnhBlpO24nAZ6K26b-95" value="&lt;font color=&quot;#ffffff&quot;&gt;running&lt;/font&gt;" style="text;html=1;strokeColor=none;fillColor=#3399FF;align=center;verticalAlign=middle;whiteSpace=wrap;rounded=0;shadow=0;glass=0;sketch=0;fontFamily=Courier New;fontSize=25;fontColor=#3399FF;" parent="1" vertex="1">
                    <mxGeometry x="1039" y="460" width="161" height="30" as="geometry"/>
                </mxCell>
                <mxCell id="TP8MnhBlpO24nAZ6K26b-96" value="&lt;font color=&quot;#39c2d7&quot;&gt;playwright/firefox&lt;/font&gt;" style="text;html=1;strokeColor=none;fillColor=none;align=center;verticalAlign=middle;whiteSpace=wrap;rounded=0;shadow=0;glass=0;sketch=0;fontFamily=Courier New;fontSize=25;fontColor=#3399FF;" parent="1" vertex="1">
                    <mxGeometry x="40" y="509.5" width="255" height="30" as="geometry"/>
                </mxCell>
                <mxCell id="TP8MnhBlpO24nAZ6K26b-97" value="&lt;font color=&quot;#39c2d7&quot;&gt;firefox&lt;/font&gt;" style="text;html=1;strokeColor=none;fillColor=none;align=center;verticalAlign=middle;whiteSpace=wrap;rounded=0;shadow=0;glass=0;sketch=0;fontFamily=Courier New;fontSize=25;fontColor=#3399FF;" parent="1" vertex="1">
                    <mxGeometry x="286" y="509.5" width="255" height="30" as="geometry"/>
                </mxCell>
                <mxCell id="TP8MnhBlpO24nAZ6K26b-99" value="&lt;font color=&quot;#39c2d7&quot;&gt;automation&lt;/font&gt;" style="text;html=1;strokeColor=none;fillColor=none;align=center;verticalAlign=middle;whiteSpace=wrap;rounded=0;shadow=0;glass=0;sketch=0;fontFamily=Courier New;fontSize=25;fontColor=#3399FF;" parent="1" vertex="1">
                    <mxGeometry x="710" y="520" width="255" height="30" as="geometry"/>
                </mxCell>
                <mxCell id="TP8MnhBlpO24nAZ6K26b-100" value="&lt;font color=&quot;#222222&quot;&gt;timeout&lt;/font&gt;" style="text;html=1;strokeColor=none;fillColor=#FF6666;align=center;verticalAlign=middle;whiteSpace=wrap;rounded=0;shadow=0;glass=0;sketch=0;fontFamily=Courier New;fontSize=25;fontColor=#3399FF;" parent="1" vertex="1">
                    <mxGeometry x="1039" y="520" width="161" height="30" as="geometry"/>
                </mxCell>
                <mxCell id="TP8MnhBlpO24nAZ6K26b-2" value="" style="rounded=1;whiteSpace=wrap;html=1;fillColor=none;strokeColor=#39C2D7;align=left;" parent="1" vertex="1">
                    <mxGeometry x="739.5" y="10" width="330" height="60" as="geometry"/>
                </mxCell>
                <mxCell id="TP8MnhBlpO24nAZ6K26b-17" value="&lt;font size=&quot;1&quot;&gt;&lt;i style=&quot;font-size: 25px&quot;&gt;Search&lt;/i&gt;&lt;/font&gt;" style="text;html=1;strokeColor=none;fillColor=none;align=center;verticalAlign=middle;whiteSpace=wrap;rounded=0;sketch=1;fontFamily=Courier New;fontSize=52;fontColor=#CCCCCC;" parent="1" vertex="1">
                    <mxGeometry x="739.5" y="10" width="149" height="51" as="geometry"/>
                </mxCell>
                <mxCell id="TP8MnhBlpO24nAZ6K26b-103" value="" style="endArrow=none;html=1;fontFamily=Courier New;fontSize=25;fontColor=#CCCCCC;entryX=0;entryY=1;entryDx=0;entryDy=0;strokeColor=#E6E6E6;" parent="1" edge="1">
                    <mxGeometry width="50" height="50" relative="1" as="geometry">
                        <mxPoint x="1215" y="720" as="sourcePoint"/>
                        <mxPoint x="30" y="720" as="targetPoint"/>
                    </mxGeometry>
                </mxCell>
                <mxCell id="_rinoO1dzgoOn7CuPOwN-2" value="&lt;font color=&quot;#e6e6e6&quot;&gt;&amp;lt; 1/1 &amp;gt;&lt;/font&gt;" style="text;html=1;strokeColor=none;fillColor=none;align=center;verticalAlign=middle;whiteSpace=wrap;rounded=0;shadow=0;glass=0;sketch=0;fontFamily=Courier New;fontSize=25;fontColor=#CCCCCC;" parent="1" vertex="1">
                    <mxGeometry x="560" y="670" width="120" height="60" as="geometry"/>
                </mxCell>
                <mxCell id="_rinoO1dzgoOn7CuPOwN-11" value="&lt;div style=&quot;text-align: center&quot;&gt;&lt;span style=&quot;font-size: 32px&quot;&gt;&amp;nbsp; Quotes&lt;/span&gt;&lt;/div&gt;&lt;font style=&quot;font-size: 32px&quot;&gt;&lt;div style=&quot;text-align: center&quot;&gt;&lt;span&gt;3/10&lt;/span&gt;&lt;/div&gt;&lt;/font&gt;" style="text;html=1;strokeColor=default;fillColor=none;align=left;verticalAlign=middle;whiteSpace=wrap;rounded=1;shadow=0;glass=0;sketch=0;fontFamily=Courier New;fontSize=25;fontColor=#FFFFFF;" parent="1" vertex="1">
                    <mxGeometry x="900" y="110" width="190" height="120" as="geometry"/>
                </mxCell>
                <mxCell id="_rinoO1dzgoOn7CuPOwN-19" value="&lt;div&gt;&lt;span style=&quot;font-size: 32px&quot;&gt;&amp;nbsp;All&lt;/span&gt;&lt;/div&gt;&lt;font style=&quot;font-size: 32px&quot;&gt;&lt;div&gt;&lt;span&gt;3&lt;/span&gt;&lt;/div&gt;&lt;/font&gt;" style="text;html=1;strokeColor=default;fillColor=none;align=center;verticalAlign=middle;whiteSpace=wrap;rounded=1;shadow=0;glass=0;sketch=0;fontFamily=Courier New;fontSize=25;fontColor=#FFFFFF;" parent="1" vertex="1">
                    <mxGeometry x="110" y="110" width="190" height="120" as="geometry"/>
                </mxCell>
                <mxCell id="_rinoO1dzgoOn7CuPOwN-20" value="&lt;div&gt;&lt;span style=&quot;font-size: 32px&quot;&gt;Manual&lt;/span&gt;&lt;/div&gt;&lt;div&gt;&lt;span style=&quot;font-size: 32px&quot;&gt;1&lt;/span&gt;&lt;/div&gt;" style="text;html=1;strokeColor=default;fillColor=none;align=center;verticalAlign=middle;whiteSpace=wrap;rounded=1;shadow=0;glass=0;sketch=0;fontFamily=Courier New;fontSize=25;fontColor=#FFFFFF;" parent="1" vertex="1">
                    <mxGeometry x="380" y="110" width="180" height="120" as="geometry"/>
                </mxCell>
                <mxCell id="_rinoO1dzgoOn7CuPOwN-22" value="&lt;div&gt;&lt;span style=&quot;font-size: 32px&quot;&gt;Automated&lt;/span&gt;&lt;/div&gt;&lt;div&gt;&lt;span style=&quot;font-size: 32px&quot;&gt;1&lt;/span&gt;&lt;/div&gt;" style="text;html=1;strokeColor=default;fillColor=none;align=center;verticalAlign=middle;whiteSpace=wrap;rounded=1;shadow=0;glass=0;sketch=0;fontFamily=Courier New;fontSize=25;fontColor=#FFFFFF;" parent="1" vertex="1">
                    <mxGeometry x="640" y="110" width="180" height="120" as="geometry"/>
                </mxCell>
                <mxCell id="_rinoO1dzgoOn7CuPOwN-24" value="&lt;font color=&quot;#e6e6e6&quot;&gt;Time&lt;/font&gt;" style="text;html=1;strokeColor=none;fillColor=none;align=center;verticalAlign=middle;whiteSpace=wrap;rounded=0;shadow=0;glass=0;sketch=0;fontFamily=Courier New;fontSize=25;fontColor=#CCCCCC;" parent="1" vertex="1">
                    <mxGeometry x="566.5" y="295" width="120" height="60" as="geometry"/>
                </mxCell>
                <mxCell id="_rinoO1dzgoOn7CuPOwN-25" value="" style="rounded=0;whiteSpace=wrap;html=1;shadow=0;glass=0;sketch=0;fontFamily=Courier New;fontSize=32;fontColor=#ffffff;strokeColor=none;strokeWidth=1;fillColor=#FF6666;" parent="1" vertex="1">
                    <mxGeometry x="567" y="385" width="13" height="25" as="geometry"/>
                </mxCell>
                <mxCell id="_rinoO1dzgoOn7CuPOwN-26" value="" style="rounded=0;whiteSpace=wrap;html=1;shadow=0;glass=0;sketch=0;fontFamily=Courier New;fontSize=32;fontColor=#FFFFFF;strokeColor=none;strokeWidth=1;fillColor=#39C2D7;gradientColor=none;" parent="1" vertex="1">
                    <mxGeometry x="580" y="385" width="90" height="25" as="geometry"/>
                </mxCell>
                <mxCell id="_rinoO1dzgoOn7CuPOwN-28" value="" style="rounded=0;whiteSpace=wrap;html=1;shadow=0;glass=0;sketch=0;fontFamily=Courier New;fontSize=32;fontColor=#ffffff;strokeColor=none;strokeWidth=1;fillColor=#FF6666;" parent="1" vertex="1">
                    <mxGeometry x="566.5" y="509.5" width="103.5" height="27" as="geometry"/>
                </mxCell>
                <mxCell id="_rinoO1dzgoOn7CuPOwN-29" value="" style="rounded=0;whiteSpace=wrap;html=1;shadow=0;glass=0;sketch=0;fontFamily=Courier New;fontSize=32;fontColor=#FFFFFF;strokeColor=none;strokeWidth=1;fillColor=#39C2D7;gradientColor=none;" parent="1" vertex="1">
                    <mxGeometry x="640" y="452.5" width="30" height="25" as="geometry"/>
                </mxCell>
                <mxCell id="_rinoO1dzgoOn7CuPOwN-31" value="" style="rounded=0;whiteSpace=wrap;html=1;shadow=0;glass=0;sketch=0;fontFamily=Courier New;fontSize=32;fontColor=#ffffff;strokeColor=none;strokeWidth=1;fillColor=#FF6666;" parent="1" vertex="1">
                    <mxGeometry x="566.5" y="452.5" width="73.5" height="25" as="geometry"/>
                </mxCell>
            </root>
        </mxGraphModel>
    </diagram>
    <diagram id="yJu8qnkrIus44sWnIEdK" name="2-  Mockup-SessionScreen">
        <mxGraphModel dx="2054" dy="1802" grid="1" gridSize="10" guides="1" tooltips="1" connect="1" arrows="1" fold="1" page="1" pageScale="1" pageWidth="827" pageHeight="1169" math="0" shadow="0">
            <root>
                <mxCell id="RzSAKkA3xlEbmt96XVOA-0"/>
                <mxCell id="RzSAKkA3xlEbmt96XVOA-1" parent="RzSAKkA3xlEbmt96XVOA-0"/>
                <mxCell id="jxQb2fgDfMA-DtGeKl8O-0" value="" style="rounded=0;whiteSpace=wrap;html=1;fillColor=#464547;strokeWidth=2;strokeColor=none;" parent="RzSAKkA3xlEbmt96XVOA-1" vertex="1">
                    <mxGeometry width="1280" height="800" as="geometry"/>
                </mxCell>
                <mxCell id="jxQb2fgDfMA-DtGeKl8O-1" value="" style="text;html=1;strokeColor=none;fillColor=#282C34;align=center;verticalAlign=middle;whiteSpace=wrap;rounded=0;fontColor=#39C2D7;strokeWidth=2;gradientColor=none;" parent="RzSAKkA3xlEbmt96XVOA-1" vertex="1">
                    <mxGeometry width="1280" height="80" as="geometry"/>
                </mxCell>
                <mxCell id="jxQb2fgDfMA-DtGeKl8O-6" value="&lt;font style=&quot;font-size: 25px&quot;&gt;Actions&lt;/font&gt;" style="text;html=1;strokeColor=none;fillColor=none;align=center;verticalAlign=middle;whiteSpace=wrap;rounded=0;fontColor=#39C2D7;strokeWidth=2;" parent="RzSAKkA3xlEbmt96XVOA-1" vertex="1">
                    <mxGeometry x="20" y="15" width="130" height="50" as="geometry"/>
                </mxCell>
                <mxCell id="jxQb2fgDfMA-DtGeKl8O-7" value="" style="edgeStyle=none;html=1;fontFamily=Courier New;fontSize=24;fontColor=#CCCCCC;" parent="RzSAKkA3xlEbmt96XVOA-1" edge="1">
                    <mxGeometry relative="1" as="geometry">
                        <mxPoint x="95" y="115" as="sourcePoint"/>
                        <mxPoint x="95" y="115" as="targetPoint"/>
                    </mxGeometry>
                </mxCell>
                <mxCell id="jxQb2fgDfMA-DtGeKl8O-8" value="&lt;font style=&quot;font-size: 25px&quot;&gt;Dashboards&lt;/font&gt;" style="text;html=1;strokeColor=none;fillColor=none;align=center;verticalAlign=middle;whiteSpace=wrap;rounded=0;fontColor=#39C2D7;strokeWidth=2;" parent="RzSAKkA3xlEbmt96XVOA-1" vertex="1">
                    <mxGeometry x="190" y="15" width="130" height="50" as="geometry"/>
                </mxCell>
                <mxCell id="jxQb2fgDfMA-DtGeKl8O-9" value="&lt;font style=&quot;font-size: 25px&quot;&gt;Settings&lt;/font&gt;" style="text;html=1;strokeColor=none;fillColor=none;align=center;verticalAlign=middle;whiteSpace=wrap;rounded=0;fontColor=#39C2D7;strokeWidth=2;" parent="RzSAKkA3xlEbmt96XVOA-1" vertex="1">
                    <mxGeometry x="1120" y="15" width="130" height="50" as="geometry"/>
                </mxCell>
                <mxCell id="jxQb2fgDfMA-DtGeKl8O-10" value="" style="rounded=0;whiteSpace=wrap;html=1;sketch=0;fontFamily=Courier New;fontSize=24;fontColor=#CCCCCC;strokeColor=#CCCCCC;strokeWidth=1;fillColor=none;gradientColor=none;" parent="RzSAKkA3xlEbmt96XVOA-1" vertex="1">
                    <mxGeometry x="160" y="140" width="619" height="600" as="geometry"/>
                </mxCell>
                <mxCell id="jxQb2fgDfMA-DtGeKl8O-31" value="" style="rounded=1;whiteSpace=wrap;html=1;fillColor=none;strokeColor=#39C2D7;align=left;" parent="RzSAKkA3xlEbmt96XVOA-1" vertex="1">
                    <mxGeometry x="739.5" y="10" width="330" height="60" as="geometry"/>
                </mxCell>
                <mxCell id="jxQb2fgDfMA-DtGeKl8O-32" value="&lt;font size=&quot;1&quot;&gt;&lt;i style=&quot;font-size: 25px&quot;&gt;Search&lt;/i&gt;&lt;/font&gt;" style="text;html=1;strokeColor=none;fillColor=none;align=center;verticalAlign=middle;whiteSpace=wrap;rounded=0;sketch=1;fontFamily=Courier New;fontSize=52;fontColor=#CCCCCC;" parent="RzSAKkA3xlEbmt96XVOA-1" vertex="1">
                    <mxGeometry x="739.5" y="10" width="149" height="51" as="geometry"/>
                </mxCell>
                <mxCell id="DMorCjkjw7JtSXWTKXPr-0" value="&lt;font color=&quot;#464547&quot; style=&quot;font-size: 25px&quot;&gt;&lt;i&gt;Filter Logs&lt;/i&gt;&lt;/font&gt;" style="rounded=1;whiteSpace=wrap;html=1;fillColor=#E6E6E6;strokeColor=none;align=left;" parent="RzSAKkA3xlEbmt96XVOA-1" vertex="1">
                    <mxGeometry x="800" y="680" width="370" height="60" as="geometry"/>
                </mxCell>
                <mxCell id="DMorCjkjw7JtSXWTKXPr-1" value="&lt;font color=&quot;#e6e6e6&quot; style=&quot;font-size: 21px&quot;&gt;&amp;nbsp; Filter&lt;/font&gt;" style="rounded=1;whiteSpace=wrap;html=1;fillColor=none;strokeColor=#39C2D7;align=left;" parent="RzSAKkA3xlEbmt96XVOA-1" vertex="1">
                    <mxGeometry x="1180" y="680" width="70" height="60" as="geometry"/>
                </mxCell>
                <mxCell id="DMorCjkjw7JtSXWTKXPr-2" value="" style="rounded=0;whiteSpace=wrap;html=1;sketch=0;fontFamily=Courier New;fontSize=24;fontColor=#CCCCCC;strokeColor=none;strokeWidth=1;fillColor=#000000;gradientColor=none;" parent="RzSAKkA3xlEbmt96XVOA-1" vertex="1">
                    <mxGeometry x="791" y="130" width="470" height="540" as="geometry"/>
                </mxCell>
                <mxCell id="DMorCjkjw7JtSXWTKXPr-4" value="&lt;h1&gt;&lt;font color=&quot;#cccccc&quot;&gt;&lt;br&gt;&lt;/font&gt;&lt;/h1&gt;&lt;p&gt;&lt;font color=&quot;#cccccc&quot;&gt;Lorem ipsum dolor sit amet, consectetur adipisicing elit, sed do eiusmod tempor incididunt ut labore et dolore magna aliqua.&lt;/font&gt;&lt;/p&gt;&lt;p&gt;&lt;br class=&quot;Apple-interchange-newline&quot;&gt;&lt;span style=&quot;color: rgb(204 , 204 , 204)&quot;&gt;Lorem ipsum dolor sit amet, consectetur adipisicing elit, sed do eiusmod tempor incididunt ut labore et dolore magna aliqua.&lt;/span&gt;&lt;font color=&quot;#cccccc&quot;&gt;&lt;br&gt;&lt;/font&gt;&lt;/p&gt;" style="text;html=1;strokeColor=none;fillColor=none;spacing=5;spacingTop=-20;whiteSpace=wrap;overflow=hidden;rounded=0;shadow=0;glass=0;sketch=0;fontFamily=Courier New;fontSize=25;fontColor=#464547;" parent="RzSAKkA3xlEbmt96XVOA-1" vertex="1">
                    <mxGeometry x="810" y="20" width="450" height="470" as="geometry"/>
                </mxCell>
                <mxCell id="DMorCjkjw7JtSXWTKXPr-5" value="" style="shape=image;imageAspect=0;aspect=fixed;verticalLabelPosition=bottom;verticalAlign=top;rounded=1;shadow=0;glass=0;sketch=0;fontFamily=Courier New;fontSize=25;fontColor=#CCCCCC;strokeColor=default;strokeWidth=1;fillColor=#E6E6E6;gradientColor=none;image=https://reportportal.io/resources/item3.848b47.jpg;" parent="RzSAKkA3xlEbmt96XVOA-1" vertex="1">
                    <mxGeometry x="176.88000000000002" y="256.51" width="585.23" height="286.99" as="geometry"/>
                </mxCell>
                <mxCell id="DMorCjkjw7JtSXWTKXPr-10" value="" style="rounded=0;whiteSpace=wrap;html=1;shadow=0;glass=0;sketch=0;fontFamily=Courier New;fontSize=25;fontColor=#CCCCCC;strokeColor=none;strokeWidth=1;fillColor=#666666;gradientColor=none;" parent="RzSAKkA3xlEbmt96XVOA-1" vertex="1">
                    <mxGeometry x="10" y="140" width="120" height="610" as="geometry"/>
                </mxCell>
                <mxCell id="DMorCjkjw7JtSXWTKXPr-14" value="" style="rounded=1;whiteSpace=wrap;html=1;shadow=0;glass=0;sketch=0;fontFamily=Courier New;fontSize=25;fontColor=#CCCCCC;strokeColor=none;strokeWidth=1;fillColor=#39C2D7;gradientColor=none;" parent="RzSAKkA3xlEbmt96XVOA-1" vertex="1">
                    <mxGeometry x="45" y="430" width="50" height="40" as="geometry"/>
                </mxCell>
                <mxCell id="DMorCjkjw7JtSXWTKXPr-15" value="" style="rounded=1;whiteSpace=wrap;html=1;shadow=0;glass=0;sketch=0;fontFamily=Courier New;fontSize=25;fontColor=#CCCCCC;strokeColor=none;strokeWidth=1;fillColor=#39C2D7;gradientColor=none;" parent="RzSAKkA3xlEbmt96XVOA-1" vertex="1">
                    <mxGeometry x="45" y="360" width="50" height="40" as="geometry"/>
                </mxCell>
                <mxCell id="DMorCjkjw7JtSXWTKXPr-16" value="" style="rounded=1;whiteSpace=wrap;html=1;shadow=0;glass=0;sketch=0;fontFamily=Courier New;fontSize=25;fontColor=#CCCCCC;strokeColor=none;strokeWidth=1;fillColor=#39C2D7;gradientColor=none;" parent="RzSAKkA3xlEbmt96XVOA-1" vertex="1">
                    <mxGeometry x="45" y="290" width="50" height="40" as="geometry"/>
                </mxCell>
                <mxCell id="DMorCjkjw7JtSXWTKXPr-17" value="" style="rounded=1;whiteSpace=wrap;html=1;shadow=0;glass=0;sketch=0;fontFamily=Courier New;fontSize=25;fontColor=#CCCCCC;strokeColor=none;strokeWidth=1;fillColor=#39C2D7;gradientColor=none;" parent="RzSAKkA3xlEbmt96XVOA-1" vertex="1">
                    <mxGeometry x="45" y="216.51" width="50" height="40" as="geometry"/>
                </mxCell>
                <mxCell id="DMorCjkjw7JtSXWTKXPr-18" value="Chrome v80" style="text;html=1;strokeColor=none;fillColor=none;align=center;verticalAlign=middle;whiteSpace=wrap;rounded=0;shadow=0;glass=0;sketch=0;fontFamily=Courier New;fontSize=25;fontColor=#CCCCCC;" parent="RzSAKkA3xlEbmt96XVOA-1" vertex="1">
                    <mxGeometry x="300" y="90" width="320" height="30" as="geometry"/>
                </mxCell>
                <mxCell id="DMorCjkjw7JtSXWTKXPr-19" value="25/60 min" style="text;html=1;strokeColor=none;fillColor=none;align=center;verticalAlign=middle;whiteSpace=wrap;rounded=0;shadow=0;glass=0;sketch=0;fontFamily=Courier New;fontSize=25;fontColor=#CCCCCC;" parent="RzSAKkA3xlEbmt96XVOA-1" vertex="1">
                    <mxGeometry x="-30" y="90" width="220" height="30" as="geometry"/>
                </mxCell>
                <mxCell id="DMorCjkjw7JtSXWTKXPr-20" value="view port: 1200x800" style="text;html=1;strokeColor=none;fillColor=none;align=center;verticalAlign=middle;whiteSpace=wrap;rounded=0;shadow=0;glass=0;sketch=0;fontFamily=Courier New;fontSize=25;fontColor=#CCCCCC;" parent="RzSAKkA3xlEbmt96XVOA-1" vertex="1">
                    <mxGeometry x="590" y="90" width="320" height="30" as="geometry"/>
                </mxCell>
            </root>
        </mxGraphModel>
    </diagram>
</mxfile>